<svg width="46" height="45" viewBox="0 0 46 45" fill="none" xmlns="http://www.w3.org/2000/svg">
<path d="M45.0301 40.1721C45.0301 42.8743 38.2747 42.7242 38.2747 42.7242L19.4348 37.9954C18.0837 37.6952 17.0329 36.269 17.0329 34.7678V18.7051L45.0301 20.2813V40.1721Z" fill="#5F6262"/>
<path d="M43.6791 8.49729L42.6282 8.34717L37.3741 10.8992L36.6235 44.0005C40.9769 40.3226 45.0301 40.2475 45.0301 40.2475V11.4246C45.0301 10.2237 44.5047 9.17282 43.6791 8.49729Z" fill="#343434"/>
<path d="M37.6743 40.998C37.6743 43.7002 35.7227 45.4266 33.3959 44.9011L3.97251 37.6954C2.24614 37.2451 0.820007 35.0683 0.820007 32.8165V8.57227L37.6743 10.9742V40.998Z" fill="#5F6262"/>
<path d="M38.1996 22.9086C38.1996 25.6108 35.9479 27.6374 33.621 27.187L4.12257 22.3082C2.3962 22.0079 0.970062 19.9062 0.970062 17.6545L1.94584 7.74658L38.3498 10.6739L38.1996 22.9086Z" fill="#343434"/>
<path d="M1.94588 7.0708C-0.831324 8.94729 -0.831324 20.5065 3.2219 20.5065L32.7203 25.0851C35.0472 25.4604 36.9987 23.5089 36.9987 20.8067C36.9987 20.8067 36.098 12.0247 37.7493 10.8988L39.1004 10.2984L1.94588 7.0708Z" fill="#5F6262"/>
<path d="M21.7616 18.4048L13.8053 17.354L12.3792 22.9084L13.8053 27.0367L21.7616 28.4628V18.4048Z" fill="#65562D"/>
<path d="M13.8053 17.354L12.3792 22.9084L20.3355 24.1094L21.7616 18.4048L13.8053 17.354Z" fill="#F8ECC5"/>
<path d="M13.8053 27.037L21.7616 28.4631L20.3355 24.1096L12.3792 22.9087L13.8053 27.037Z" fill="#BFAE6E"/>
<path d="M41.0519 7.59624L14.1055 5.19434L3.89741 6.39529L3.44705 6.47035C2.92164 6.54541 2.39622 6.77059 2.02092 7.07083L37.8244 10.9739L41.5774 9.32262C44.6548 7.82142 45.0301 10.5236 45.0301 10.5236C44.5797 8.12166 42.403 7.74636 41.0519 7.59624Z" fill="#919193"/>
<path d="M12.5293 6.09548C12.5293 2.86792 15.0813 2.7178 15.6818 2.49262C16.2072 2.3425 16.5825 1.81708 16.4324 1.36673C16.2822 0.916368 15.7568 0.841309 15.2314 0.841309C13.505 0.841309 10.5027 1.59191 10.5027 6.09548C10.5777 6.6209 12.5293 6.6209 12.5293 6.09548Z" fill="#BFAE6E"/>
<path d="M12.154 5.87009C12.0789 5.41973 12.0789 4.96937 12.2291 4.51902C12.3041 4.06866 12.5293 3.6183 12.8295 3.31806C13.1298 2.94276 13.5801 2.71758 13.9554 2.56746C14.4058 2.41734 14.8562 2.34229 15.3065 2.34229C14.8562 2.4924 14.4809 2.64252 14.1056 2.79264C13.7303 3.01782 13.355 3.243 13.1298 3.54324C12.5293 4.14372 12.3041 4.96937 12.154 5.87009Z" fill="#65562D"/>
<path d="M31.2942 3.61813C31.2191 4.89414 30.0932 5.86992 28.8172 5.7198L14.9312 4.5939C13.6552 4.51885 12.6794 3.39295 12.8295 2.11694C12.9046 0.840922 14.0305 -0.134853 15.3065 0.015266L29.1175 1.14116C30.4685 1.21622 31.4443 2.34212 31.2942 3.61813Z" fill="#5F6262"/>
<path d="M31.2942 3.61817C31.2191 4.44382 30.1683 4.96924 28.8923 4.81912L15.0062 3.69323C13.7302 3.61817 12.7545 2.86757 12.8295 2.04192C12.9046 1.21626 13.9554 0.690841 15.2314 0.765901L29.0424 1.8918C30.3935 2.11697 31.3692 2.79251 31.2942 3.61817Z" fill="#343434"/>
<path d="M31.5194 8.27181C31.5194 6.32026 30.0932 5.11931 29.2676 4.74401C27.9916 4.21859 29.0424 1.9668 30.2434 2.56728C31.7445 3.24282 33.7712 5.34449 33.7712 8.27181C33.8462 8.94735 31.5194 8.94735 31.5194 8.27181Z" fill="#BFAE6E"/>
<path d="M31.8196 8.27219C31.6695 7.37147 31.4443 6.54582 30.9189 5.87028C30.4686 5.19474 29.8681 4.51921 29.1175 4.06885C29.5679 4.14391 29.9432 4.36909 30.3184 4.66933C30.6937 4.96956 30.994 5.2698 31.2192 5.6451C31.7446 6.47076 31.9698 7.37147 31.8196 8.27219Z" fill="#65562D"/>
</svg>
