<svg width="49" height="49" viewBox="0 0 49 49" fill="none" xmlns="http://www.w3.org/2000/svg">
<path d="M46.06 16.905L47.3667 33.2383C43.9367 42.4667 34.9533 49 24.5 49C10.9433 49 0 38.0567 0 24.5C0 10.9433 10.9433 0 24.5 0C29.4 0 33.9733 1.47 37.8117 3.92L46.06 16.905Z" fill="#008DB3"/>
<path d="M37.8117 3.92018C38.0567 4.73685 38.3017 5.63518 37.485 5.22685C36.0967 4.49185 34.3 3.67518 34.8717 4.24685C35.4433 4.81851 35.6883 5.47185 34.79 5.39018C33.8917 5.30851 32.2583 5.06351 31.5233 6.12518C30.7883 7.18685 29.8083 6.94185 29.5633 7.35018C29.3183 7.75851 28.91 9.47351 28.175 8.90185C27.44 8.41185 25.97 6.53351 27.195 7.02351C28.42 7.51351 29.8083 6.94185 28.665 5.63518C27.5217 4.32851 26.3783 4.81851 25.8883 4.08351C25.3983 3.34851 23.765 2.45018 22.54 4.24685C21.3967 6.04351 20.335 8.41185 19.6817 8.90185C19.0283 9.39185 17.64 10.2902 17.885 11.0252C18.0483 11.7602 18.13 13.4752 18.865 12.9852C19.6 12.4952 20.0083 12.2502 20.335 12.7402C20.58 13.2302 20.4983 14.2102 21.07 14.2102C21.07 14.2102 22.2133 13.3935 22.295 12.6585C22.3767 11.9235 21.4783 11.5152 22.1317 10.4535C22.785 9.39185 24.255 7.35018 23.9283 8.41185C23.6017 9.39185 22.8667 10.8618 23.4383 11.5152C23.9283 12.1685 26.7867 11.3518 25.48 12.0052C24.1733 12.6585 23.52 13.1485 23.275 13.9652C23.03 14.7818 22.785 15.4352 22.1317 15.1085C21.4783 14.7818 20.6617 14.9452 20.335 14.9452C20.0083 14.9452 19.845 13.4752 19.2733 13.8018C18.7833 14.1285 19.4367 15.1902 18.865 15.2718C18.2933 15.3535 18.2117 16.0068 17.5583 16.4968C16.905 16.9868 16.0067 17.9668 15.435 18.0485C14.8633 18.1302 16.3333 18.8652 16.0883 19.5185C15.8433 20.2535 14.5367 20.1718 14.0467 20.2535C13.5567 20.3352 13.965 21.3152 13.72 21.8868C13.475 22.4585 13.965 23.0302 14.7817 23.0302C15.5983 23.0302 16.415 22.8668 16.4967 22.1318C16.5783 21.3968 17.3133 20.1718 17.885 20.4168C18.375 20.6618 19.6 19.9268 19.845 20.3352C20.09 20.7435 21.6417 22.1318 21.4783 22.2952C21.315 22.4585 20.4167 22.8668 20.7433 23.0302C20.7433 23.0302 20.9883 23.4385 21.1517 23.3568C21.315 23.2752 21.7233 22.2135 21.9683 22.0502C22.2133 21.8868 22.2133 21.3152 21.8867 21.0702C21.4783 20.8252 20.09 19.8452 20.4167 19.3552C20.7433 18.8652 21.4783 19.9268 21.805 20.2535C22.1317 20.5802 22.6217 20.9885 22.6217 21.7235C22.6217 22.4585 23.1117 22.4585 23.1117 22.7852C23.1933 23.1935 23.3567 23.2752 23.765 23.2752C24.1733 23.1935 24.3367 22.2952 24.1733 22.0502C23.9283 21.8052 23.9283 21.3152 24.4183 21.3152C24.9083 21.3152 25.48 20.9068 25.48 20.6618C25.48 20.4168 25.97 18.9468 26.2967 18.9468C26.6233 18.9468 26.8683 19.5185 26.95 19.8452C27.1133 20.1718 27.93 19.6002 27.7667 19.2735C27.6033 18.9468 27.8483 18.8652 28.0933 18.8652C28.3383 18.8652 28.175 19.5185 28.3383 19.6818C28.5833 19.8452 29.7267 20.5802 29.3183 20.9885C28.91 21.3968 28.3383 21.1518 27.93 20.8252C27.5217 20.4985 26.46 20.6618 26.1333 20.9885C25.8883 21.3152 25.6433 21.4785 25.1533 21.4785C24.6633 21.4785 24.745 22.3768 25.1533 22.7035C25.5617 23.1118 26.1333 22.7852 26.5417 23.0302C26.95 23.2752 27.6033 22.7035 27.685 23.1118C27.7667 23.5202 27.6033 24.7452 27.195 24.8268C26.7867 24.9085 25.48 25.1535 24.5817 24.7452C23.6017 24.3368 22.7033 24.1735 22.6217 24.5818C22.54 25.0718 22.54 25.3985 21.8867 24.9902C21.2333 24.5818 20.6617 24.3368 20.2533 24.3368C19.845 24.3368 19.845 23.6018 19.9267 23.0302C20.0083 22.4585 18.9467 22.6218 18.2933 22.7852C17.64 22.9485 16.3333 23.3568 15.5167 23.3568C14.7 23.3568 14.3733 23.5202 14.21 23.8468C14.0467 24.1735 13.3117 24.1735 13.3117 24.8268C13.3117 25.4802 13.3933 25.6435 12.74 25.9702C12.005 26.2152 11.8417 27.5218 11.515 27.8485C11.1883 28.1752 11.8417 28.9918 11.515 29.4818C11.1883 29.8902 10.8617 31.0335 11.4333 31.2785C12.005 31.5235 12.5767 32.6668 12.8217 33.0752C13.0667 33.4835 13.965 33.8918 14.8633 33.7285C15.7617 33.5652 17.395 33.0752 18.2933 33.4835C19.1917 33.8918 20.09 33.8102 19.6817 34.6268C19.1917 35.4435 19.9267 36.5052 20.4983 37.0768C21.07 37.6485 20.9067 39.1185 20.58 39.5268C20.2533 40.0168 20.335 40.8335 20.6617 41.2418C20.9883 41.6502 21.1517 42.6302 21.1517 42.9568C21.1517 43.3652 21.805 44.1002 21.8867 44.8352C21.9683 45.6518 21.3967 46.5502 22.1317 46.5502C22.8667 46.5502 24.745 46.6318 24.9083 46.3052C25.0717 45.9785 26.5417 44.6718 26.95 44.1002C27.3583 43.5285 28.175 42.5485 27.93 41.9768C27.44 41.5685 27.7667 41.1602 28.5833 40.8335C29.4 40.5068 29.4 38.2202 28.9917 37.6485C28.5833 37.0768 29.3183 35.6885 30.2167 35.2802C31.115 34.8718 33.2383 31.1152 32.585 31.4418C31.85 31.7685 30.4617 32.0135 29.9717 31.6868C29.4817 31.3602 26.6233 26.4602 27.0317 26.1335C27.44 25.8068 29.7267 30.6252 30.135 31.1968C30.5433 31.8502 34.3817 29.4818 34.8717 28.9102C35.28 28.3385 34.6267 27.7668 34.3817 27.7668C34.1367 27.7668 33.2383 27.1952 32.9933 27.5218C32.7483 27.8485 31.115 25.1535 31.6867 25.3985C32.2583 25.6435 33.4833 26.4602 34.6267 27.1135C35.77 27.7668 37.0767 26.7052 37.8117 27.9302C38.6283 29.1552 39.1183 28.3385 39.0367 28.9102C38.955 29.4818 40.0167 31.8502 40.425 32.5852C40.7517 33.3202 41.4867 32.2585 41.5683 31.4418C41.65 30.5435 43.365 29.1552 44.0183 28.6652C44.59 28.1752 45.7333 28.9102 45.8967 29.8902C46.06 30.8702 46.8767 29.7268 46.8767 30.4618C46.8767 31.2785 46.7133 32.3402 47.285 33.3202C48.4283 30.4618 49 27.6035 49 24.5002C49 15.8435 44.5083 8.24851 37.8117 3.92018ZM11.76 7.02351C11.27 7.18685 10.78 7.75851 10.1267 7.43185C9.47333 7.10518 8.085 7.59518 8.98333 8.33018C9.8 9.14685 9.47333 9.63685 10.29 9.71851C11.1067 9.80018 11.5967 8.65685 12.1683 8.73851C12.74 8.82018 12.3317 6.86018 11.76 7.02351Z" fill="#FFC942"/>
<path d="M31.605 38.9551C31.0333 39.0368 31.1967 40.1801 30.5433 40.3435C29.9717 40.5068 30.4617 40.9968 30.135 41.4051C29.89 41.8135 29.7267 42.7935 30.135 43.2835C30.5433 43.8551 30.7067 43.8551 31.1967 42.9568C31.6867 42.1401 32.83 38.8735 31.605 38.9551ZM15.19 12.4951C14.945 12.4951 14.7 12.6585 14.455 12.6585C14.21 12.7401 14.0467 13.0668 14.0467 13.3935C14.0467 13.8018 14.7 13.8835 14.455 14.1285C14.21 14.3735 12.9033 14.6185 13.0667 15.0268C13.23 15.4351 13.475 15.7618 13.23 16.1701C12.985 16.5785 13.475 16.6601 13.965 16.4968C14.455 16.3335 14.7817 15.7618 14.7 15.4351C14.6183 15.0268 15.435 14.9451 15.19 15.2718C14.945 15.5985 14.5367 16.4151 14.7817 16.6601C15.0267 16.9051 14.1283 17.3135 14.455 17.4768C14.7817 17.6401 15.68 16.8235 16.17 16.9868C16.66 17.1501 16.8233 16.8235 16.905 16.4151C16.9867 15.9251 16.2517 15.3535 16.0067 14.7818C15.7617 14.1285 15.925 12.4951 15.19 12.4951Z" fill="#FFC942"/>
</svg>
