<svg width="36" height="54" viewBox="0 0 36 54" fill="none" xmlns="http://www.w3.org/2000/svg">
<path d="M14.4 50.3994C14.4 52.3794 16.02 53.9994 18 53.9994C19.98 53.9994 21.6 52.3794 21.6 50.3994H14.4Z" fill="#616466"/>
<path d="M12.51 44.8198H23.58V46.4398H12.51V44.8198Z" fill="#616466"/>
<path d="M13.41 48.1494H22.68V49.7694H13.41V48.1494Z" fill="#616466"/>
<path d="M11.61 41.4H24.3C25.02 37.53 27.45 33.75 29.97 29.79C32.94 25.2 36 20.43 36 15.84C36 7.11 27.9 0 18 0C8.1 0 0 7.11 0 15.84C0 20.43 3.06 25.2 5.94 29.79C8.46 33.75 10.89 37.53 11.61 41.4Z" fill="#FFCE31"/>
<path d="M5.33403 28.8101C5.5421 29.1381 5.75076 29.4654 5.95891 29.792C8.48251 33.7457 10.8927 37.5194 11.6442 41.4002H24.3567C25.1109 37.5185 27.5184 33.7457 30.0402 29.792C30.2484 29.4654 30.4571 29.1381 30.6653 28.8101" fill="#EFF0F1"/>
<path d="M11.61 43.2002H24.48V44.8202H11.61V43.2002ZM12.51 46.4402H23.58V48.0602H12.51V46.4402Z" fill="#94989B"/>
<path d="M24.48 43.2002L12.51 46.4402V48.1502L24.48 44.8202V43.2002ZM13.41 49.7702H22.68V51.3902H13.41V49.7702Z" fill="#94989B"/>
<path d="M23.58 46.4404L13.41 49.7704V51.4804L23.58 48.1504V46.4404Z" fill="#94989B"/>
</svg>
