<svg width="70" height="56" viewBox="0 0 70 56" xmlns="http://www.w3.org/2000/svg" fill="#FFC300">
<path d="M63 0H7C3.15 0 0.035 3.15 0.035 7L0 49C0 52.85 3.15 56 7 56H63C66.85 56 70 52.85 70 49V7C70 3.15 66.85 0 63 0ZM61.6 14.875L36.855 30.345C35.735 31.045 34.265 31.045 33.145 30.345L8.4 14.875C8.04905 14.678 7.74172 14.4118 7.49661 14.0926C7.2515 13.7734 7.07372 13.4077 6.97401 13.0178C6.87431 12.6279 6.85476 12.2218 6.91655 11.8241C6.97834 11.4264 7.12018 11.0453 7.33349 10.7041C7.54679 10.3628 7.82713 10.0683 8.15754 9.83848C8.48795 9.60867 8.86155 9.44829 9.25573 9.36705C9.64992 9.2858 10.0565 9.28538 10.4508 9.36582C10.8452 9.44625 11.2191 9.60587 11.55 9.835L35 24.5L58.45 9.835C58.7809 9.60587 59.1548 9.44625 59.5492 9.36582C59.9435 9.28538 60.3501 9.2858 60.7443 9.36705C61.1385 9.44829 61.5121 9.60867 61.8425 9.83848C62.1729 10.0683 62.4532 10.3628 62.6665 10.7041C62.8798 11.0453 63.0217 11.4264 63.0835 11.8241C63.1452 12.2218 63.1257 12.6279 63.026 13.0178C62.9263 13.4077 62.7485 13.7734 62.5034 14.0926C62.2583 14.4118 61.951 14.678 61.6 14.875Z" />
</svg>
