<svg width="46" height="46" viewBox="0 0 46 46" fill="none" xmlns="http://www.w3.org/2000/svg">
<path d="M14.7064 35.8063L35.816 14.6967C38.2788 15.2596 40.9527 14.6263 42.8525 12.7265C44.7524 10.8266 45.3857 8.15272 44.8228 5.68993L38.701 11.7414L34.4087 10.6155L33.2828 6.32322L39.4046 0.201434C36.9418 -0.36149 34.268 0.271799 32.3681 2.17166C30.4682 4.07153 29.8349 6.74542 30.3979 9.2082L9.28825 30.3178C6.82546 29.7549 4.15157 30.3882 2.25171 32.2881C-0.70364 35.173 -0.70364 39.9579 2.18134 42.8429C5.06632 45.7278 9.85117 45.7278 12.7361 42.8429C14.636 40.943 15.2693 38.2691 14.7064 35.8063ZM8.58459 41.8577L4.2923 40.7319L3.16646 36.4396L6.3329 33.2732L10.6252 34.399L11.751 38.6913L8.58459 41.8577Z" fill="#94989B"/>
<path d="M20.2652 15.4002L16.3248 19.4814L12.4547 15.4706L16.3248 11.3894L20.2652 15.4002Z" fill="#3E4347"/>
<path d="M11.751 3.57877L4.85521 10.6857C4.57375 10.9671 4.57375 11.3893 4.85521 11.6004L7.45873 14.2743L10.0623 16.9482C10.3437 17.2297 10.6955 17.2297 10.977 16.9482L17.8728 9.84129C18.1543 9.55983 18.1543 9.13764 17.8728 8.92654L12.6658 3.57877C12.4547 3.29731 12.0325 3.29731 11.751 3.57877ZM0.211096 15.4705C-0.0703654 15.752 -0.0703654 16.1742 0.211096 16.3853L5.34777 21.8034C5.62923 22.0849 5.98106 22.0849 6.26252 21.8034C6.26252 21.8034 7.66983 20.3257 7.74019 20.2554L1.68877 13.9928C1.6184 13.9928 0.211096 15.4705 0.211096 15.4705Z" fill="#94989B"/>
<path d="M7.38836 14.3448L4.78484 11.6709C4.78484 11.6709 5.62922 13.1486 3.37753 13.43C2.46278 13.5708 1.89985 13.7115 1.61839 13.9929L7.66982 20.2555C7.95128 19.9036 8.09201 19.3407 8.23274 18.426C8.5142 16.1039 9.92151 17.0187 9.92151 17.0187L7.38836 14.3448ZM27.8647 3.01594C20.7578 -4.23169 12.9472 3.86033 12.9472 3.86033L17.521 8.57481C17.521 8.57481 21.954 2.59375 27.5129 4.28252C28.1461 4.49362 28.7091 4.77508 28.9202 4.63435C29.2016 4.42325 28.3572 3.5085 27.8647 3.01594Z" fill="#3E4347"/>
<path d="M18.295 17.4409L15.7619 20.0444C15.7619 20.0444 17.0988 22.1554 19.3505 24.4775C21.8133 27.0106 25.1205 28.4883 28.4276 31.8658C33.3532 36.9321 37.4344 42.4206 38.9121 44.4612C39.475 45.2353 39.5454 45.1649 40.249 44.4612L42.36 42.2799L18.295 17.4409Z" fill="#F2B200"/>
<path d="M18.295 17.4409L20.8282 14.8374C20.8282 14.8374 22.8687 16.1743 25.1204 18.4964C27.5832 21.0296 28.9905 24.4775 32.2977 27.855C37.2233 32.9213 42.5007 37.1432 44.5413 38.6913C45.3153 39.2542 45.2449 39.3949 44.5413 40.0986L42.4303 42.2799L18.295 17.4409Z" fill="#FFCE31"/>
</svg>
