<svg width="60" height="88" viewBox="0 0 60 88" fill="#FFC300" xmlns="http://www.w3.org/2000/svg">
<path fill="#FFC300" d="M59.1253 78.0391L52.6831 64.4424C51.2966 61.5374 49.5042 59.4231 46.4099 60.7123L40.3058 63.0157C35.4192 65.319 32.9843 63.0157 30.5326 59.5434L19.5419 34.1204C18.1553 31.2154 18.8824 28.4823 21.9767 27.1931L30.5157 23.7208C33.61 22.4144 33.1196 19.6985 31.7331 16.7935L24.4116 2.93891C23.0251 0.0339139 20.1844 -0.670849 17.0901 0.618351C10.9015 3.21394 5.7781 7.28782 2.44706 13.3213C-1.61105 20.6955 0.418009 30.9575 1.22963 35.2721C2.04125 39.5866 4.88193 47.1499 8.55114 54.9023C12.2203 62.6719 15.433 68.7741 18.3244 72.2291C21.1989 75.6842 28.0977 85.1383 36.6366 87.2526C43.6369 88.9716 51.1951 87.5277 57.3837 84.9321C60.4949 83.6944 60.4949 80.9613 59.1253 78.0391Z" />
</svg>
